Coordinates
version=1
nRows=17
nColumns=40
inDegrees=yes

Units are S.I. units (second, meters, Newtons, ...)
Angles are in degrees.

endheader
time	pelvis_tilt	pelvis_list	pelvis_rotation	pelvis_tx	pelvis_ty	pelvis_tz	hip_flexion_r	hip_adduction_r	hip_rotation_r	knee_angle_r	knee_angle_r_beta	ankle_angle_r	subtalar_angle_r	mtp_angle_r	hip_flexion_l	hip_adduction_l	hip_rotation_l	knee_angle_l	knee_angle_l_beta	ankle_angle_l	subtalar_angle_l	mtp_angle_l	lumbar_extension	lumbar_bending	lumbar_rotation	arm_flex_r	arm_add_r	arm_rot_r	elbow_flex_r	pro_sup_r	wrist_flex_r	wrist_dev_r	arm_flex_l	arm_add_l	arm_rot_l	elbow_flex_l	pro_sup_l	wrist_flex_l	wrist_dev_l
     30.19000000	     -6.94598167	     -7.81326037	      2.84119432	      1.02788242	      0.91809673	      0.50230235	      0.95284150	      6.21902218	    -18.20745060	      5.77990360	      5.77990360	     13.56819682	      8.89472696	     -5.42121990	     36.46119216	    -10.52050311	     -1.07670246	     19.55939644	     19.55939644	      5.72184512	     -8.17543346	     11.46610382	    -12.06958883	      8.29488545	      4.32204976	     52.05809040	    -13.27225135	     12.35650538	     86.16403889	     44.19880542	      0.00000000	      0.00000000	    -17.88686951	     -7.68385841	     -6.63632042	     36.27058883	     46.70153769	      0.00000000	      0.00000000
     30.20171429	     -6.93319879	     -7.87456616	      2.56348570	      1.02930537	      0.91660484	      0.50067204	      0.44072736	      6.11769238	    -17.85033244	      6.21499370	      6.21499370	     14.57978604	      8.89970838	     -4.36965611	     35.77023705	    -10.49953522	     -1.18960495	     19.96831848	     19.96831848	      3.97226864	     -9.42072049	      9.07928019	    -11.86234768	      8.33513345	      4.57900324	     51.72489779	    -12.97914079	     11.94710901	     87.77154463	     44.22772239	      0.00000000	      0.00000000	    -18.16948030	     -7.78442469	     -6.23679383	     36.61298490	     46.62237463	      0.00000000	      0.00000000
     30.21342857	     -6.91905816	     -7.87504926	      2.28871117	      1.03069722	      0.91520244	      0.49889595	     -0.09739335	      5.93712650	    -17.52002946	      6.55416787	      6.55416787	     15.12646253	      8.90352733	     -4.44955292	     35.29933982	    -10.48033121	     -1.38414042	     20.88833673	     20.88833673	      3.40924948	    -10.00713591	      8.95997539	    -11.62348084	      8.34413644	      4.47873575	     51.58111612	    -12.44008324	     12.07479080	     88.29539459	     44.21311024	      0.00000000	      0.00000000	    -18.36068525	     -7.78616052	     -6.17679810	     36.49703963	     46.60962541	      0.00000000	      0.00000000
     30.22514286	     -6.96125115	     -7.88299843	      2.03875553	      1.03199648	      0.91381448	      0.49702991	     -0.39654595	      5.71193441	    -17.20793609	      7.23236301	      7.23236301	     15.81065082	      8.65546880	     -4.34854260	     34.96942520	    -10.40803596	     -1.24132888	     21.87042566	     21.87042566	      2.76392067	    -10.93400923	      8.51663513	    -11.40074238	      8.33479009	      4.19059488	     51.22886248	    -11.77337815	     12.12302219	     89.44139028	     44.18559386	      0.00000000	      0.00000000	    -18.55787095	     -7.75535820	     -6.10132800	     36.44723946	     46.59335442	      0.00000000	      0.00000000
     30.23685714	     -6.99071272	     -7.78447592	      1.75746193	      1.03327606	      0.91282788	      0.49496647	     -0.65879101	      5.32434021	    -16.84866721	      8.03964436	      8.03964436	     16.85148985	      8.53811880	     -2.91668919	     34.46063432	    -10.20279527	     -1.03398220	     22.47911201	     22.47911201	      1.53524319	    -12.22685886	      6.59503473	    -11.24454848	      8.19111428	      4.67124365	     50.01758728	    -11.97766150	     11.53329362	     91.68916770	     44.19895313	      0.00000000	      0.00000000	    -18.30020785	     -7.89148241	     -5.85466848	     36.64846923	     46.54567944	      0.00000000	      0.00000000
     30.24857143	     -6.93368825	     -7.64909133	      1.54165669	      1.03449878	      0.91223259	      0.49268946	     -1.09246592	      4.91216144	    -16.57310285	      8.60745032	      8.60745032	     17.22429676	      8.41459933	     -2.99799031	     34.08822686	    -10.00531400	     -0.96870367	     23.46066305	     23.46066305	      1.53425010	    -12.80102871	      6.42115616	    -11.14736883	      8.06044098	      4.43813512	     49.34995013	    -11.61335053	     11.71467158	     92.02109608	     44.18566759	      0.00000000	      0.00000000	    -18.17948913	     -7.93074382	     -5.81985649	     36.63181681	     46.54140314	      0.00000000	      0.00000000
     30.26028571	     -7.04100804	     -7.45272116	      1.36316151	      1.03535597	      0.91178493	      0.49012312	     -0.97032017	      4.29968962	    -16.35229114	      9.88825987	      9.88825987	     17.87875779	      8.06954253	     -2.41558823	     33.93044081	     -9.62762729	     -0.58548806	     24.37175323	     24.37175323	      1.58857150	    -13.76678665	      6.45774475	    -11.01443956	      7.85054825	      4.64555455	     47.90356129	    -11.81617199	     11.32103016	     94.15364257	     44.18068818	      0.00000000	      0.00000000	    -17.67924210	     -8.01069044	     -5.68752668	     36.60397587	     46.51721506	      0.00000000	      0.00000000
     30.27200000	     -6.92479850	     -7.27314598	      1.24493747	      1.03637311	      0.91208492	      0.48737178	     -1.36943690	      3.78660188	    -16.17213207	     10.56766326	     10.56766326	     17.97183764	      7.91717398	     -2.48785112	     33.52524386	     -9.32877681	     -0.47270884	     25.21750789	     25.21750789	      1.96484810	    -14.22542133	      6.25937558	    -11.07679241	      7.71668995	      4.34702320	     46.82555674	    -11.60719308	     11.53750982	     94.25557442	     44.17051981	      0.00000000	      0.00000000	    -17.32338752	     -8.04701088	     -5.67172549	     36.68896408	     46.51928684	      0.00000000	      0.00000000
     30.28371429	     -7.06274757	     -7.00128880	      1.13023783	      1.03693563	      0.91233946	      0.48428493	     -0.93638801	      2.95798530	    -16.09729247	     12.30496356	     12.30496356	     18.29821511	      7.60646716	     -2.58385534	     33.40360624	     -8.83319108	     -0.18385610	     26.01139743	     26.01139743	      2.80166344	    -14.87384324	      7.34470814	    -10.97518515	      7.46234622	      4.69012635	     44.89902711	    -12.23158331	     10.95478213	     96.41848795	     44.16482957	      0.00000000	      0.00000000	    -16.49366514	     -8.14903411	     -5.67103413	     36.76573632	     46.51786615	      0.00000000	      0.00000000
     30.29542857	     -7.08639580	     -6.77182481	      1.06072810	      1.03756691	      0.91312680	      0.48102161	     -0.69883949	      2.19973494	    -15.98330088	     13.85639956	     13.85639956	     18.26359047	      7.24963783	     -2.96188985	     33.05412219	     -8.41717514	     -0.11999244	     26.56282576	     26.56282576	      3.47639528	    -15.22260536	      7.49976819	    -10.95157278	      7.31762078	      4.46949904	     43.33024616	    -12.34556104	     11.00628506	     96.68384557	     44.16497484	      0.00000000	      0.00000000	    -15.92422266	     -8.19509194	     -5.67217316	     36.96400264	     46.52252379	      0.00000000	      0.00000000
     30.30714286	     -7.09315887	     -6.53495355	      1.00665034	      1.03812957	      0.91427272	      0.47757172	     -0.33722847	      1.37706936	    -15.90185823	     15.63865792	     15.63865792	     18.03296678	      6.84220537	     -3.51936401	     32.58427001	     -7.97621193	     -0.08741268	     26.90959314	     26.90959314	      4.16631919	    -15.48467282	      7.75023078	    -10.92759042	      7.15941875	      4.34369142	     41.51982349	    -12.67861863	     10.97634873	     96.89097905	     44.16508585	      0.00000000	      0.00000000	    -15.24464194	     -8.20028766	     -5.74848966	     37.36712470	     46.53932243	      0.00000000	      0.00000000
     30.31885714	     -7.11552559	     -6.33607591	      0.95349254	      1.03864665	      0.91561376	      0.47398157	      0.18882087	      0.54469050	    -15.75745079	     17.66998974	     17.66998974	     17.57545737	      6.34982157	     -4.30618739	     32.03896349	     -7.57070824	     -0.15462881	     27.07681934	     27.07681934	      4.93826727	    -15.67173524	      8.05156143	    -10.97051085	      7.09359430	      4.32644119	     39.44048854	    -13.13029244	     10.85743345	     96.95542324	     44.17074402	      0.00000000	      0.00000000	    -14.59265343	     -8.28308863	     -5.89971291	     37.91269608	     46.56553020	      0.00000000	      0.00000000
     30.33057143	     -7.14424490	     -6.18085110	      0.91306476	      1.03908238	      0.91712519	      0.47040298	      0.81172270	     -0.22774268	    -15.49371902	     19.72269494	     19.72269494	     16.13612748	      5.35767736	     -7.29128574	     31.49357708	     -7.19437407	     -0.18244117	     27.25176336	     27.25176336	      6.18909288	    -15.63777895	      9.68923940	    -11.04245810	      7.02646450	      4.85250054	     36.56750448	    -13.90921217	      9.54773630	     98.04726038	     44.22432574	      0.00000000	      0.00000000	    -13.78835568	     -8.35689928	     -6.20541795	     39.20160221	     46.60606372	      0.00000000	      0.00000000
     30.34228571	     -7.20388558	     -6.07940228	      0.83045536	      1.03941298	      0.91864077	      0.46685961	      1.83659731	     -1.03985823	    -15.14092178	     22.49500235	     22.49500235	     15.19476740	      4.37939251	     -8.42795897	     30.82985925	     -6.93374366	     -0.42473504	     27.11336394	     27.11336394	      6.77169234	    -15.52555732	      9.64135669	    -10.99919373	      7.05701800	      4.74511170	     34.39347220	    -14.34977169	      9.55344273	     97.09140490	     44.26004530	      0.00000000	      0.00000000	    -13.14142584	     -8.42347385	     -6.30527212	     39.93564474	     46.62699414	      0.00000000	      0.00000000
     30.35400000	     -7.22782623	     -5.99608122	      0.73469728	      1.03964795	      0.92018267	      0.46350127	      2.92137502	     -1.73009243	    -14.44091483	     25.23172591	     25.23172591	     13.08482088	      2.34415233	    -12.03292826	     30.07937680	     -6.71482437	     -0.72188040	     26.88721788	     26.88721788	      7.39772380	    -15.32233010	      9.77467552	    -11.02966064	      7.06269501	      4.81276101	     31.79264672	    -14.55987723	      8.50121186	     96.27553055	     44.35624876	      0.00000000	      0.00000000	    -12.90416672	     -8.55837736	     -6.62190462	     42.21844943	     46.67370601	      0.00000000	      0.00000000
     30.36571429	     -7.24345340	     -5.87648649	      0.60959069	      1.03979547	      0.92165575	      0.46017264	      4.36991535	     -2.63054795	    -14.00359903	     28.74434808	     28.74434808	     11.79899092	      1.18820619	    -12.84024187	     29.26720544	     -6.49675346	     -1.17505706	     26.57570534	     26.57570534	      7.89191567	    -14.99828948	      9.55745831	    -11.04909663	      7.05422117	      4.71277570	     29.43221101	    -15.02738694	      8.64881344	     94.91041058	     44.39209054	      0.00000000	      0.00000000	    -12.20053694	     -8.68323967	     -6.75689688	     42.99982241	     46.70118565	      0.00000000	      0.00000000
     30.37742857	     -7.33167252	     -5.92788605	      0.47362267	      1.03968588	      0.92283661	      0.45719858	      6.07405148	     -3.11895217	    -12.98188432	     32.27858806	     32.27858806	      9.48668910	     -1.58251343	    -15.21874201	     28.58353248	     -6.48438410	     -1.57855483	     26.29745873	     26.29745873	      8.30327233	    -14.56756845	      9.03546905	    -10.98084826	      7.19432862	      4.74559807	     27.01193208	    -15.02520826	      7.46069017	     92.79454114	     44.51741276	      0.00000000	      0.00000000	    -12.20526444	     -8.90933954	     -7.03707098	     45.88795414	     46.75434589	      0.00000000	      0.00000000
